<svg width="100" height="150" viewBox="0 0 100 150" xmlns="http://www.w3.org/2000/svg">
    <rect x="5" y="5" width="90" height="140" rx="5" ry="5" fill="#f0f0f0" stroke="#000"/>
    <circle cx="15" cy="20" r="7" stroke="#000" fill="none"/>
    <circle cx="35" cy="20" r="7" stroke="#000" fill="none"/>
    <circle cx="55" cy="20" r="7" stroke="#000" fill="none"/>
    <circle cx="75" cy="20" r="7" stroke="#000" fill="none"/>
    <line x1="11" y1="20" x2="19" y2="20" stroke="#000"/>
    <line x1="31" y1="20" x2="39" y2="20" stroke="#000"/>
    <line x1="51" y1="20" x2="59" y2="20" stroke="#000"/>
    <line x1="71" y1="20" x2="79" y2="20" stroke="#000"/>
    <rect x="10" y="30" width="80" height="20" fill="#add8e6"/>
    <path d="M30,50 Q50,70 70,50 L70,30 Q50,50 30,30 Z" fill="#000"/>
    <rect x="35" y="55" width="30" height="15" fill="#ff0000"/>
    <text x="50" y="67" text-anchor="middle" fill="#fff" font-size="8">I> On</text>
    <text x="20" y="90" text-anchor="middle" fill="#000" font-size="12" font-weight="bold">{intensite}A</text>
    <text x="70" y="80" text-anchor="middle" fill="#000" font-size="10">{sensibilite}mA</text>
    <text x="70" y="95" text-anchor="middle" fill="#000" font-size="10">Type {typeValue}</text>
    <path d="M20,120 L30,110 L30,120 Z" fill="#ff0000"/>
    <text x="40" y="118" fill="#000" font-size="8">{nom}</text>
    <rect x="70" y="115" width="20" height="10" fill="#d3d3d3"/>
    <text x="80" y="123" text-anchor="middle" fill="#000" font-size="8">T</text>
</svg>