<svg width="100" height="150" viewBox="0 0 100 150" xmlns="http://www.w3.org/2000/svg">
  <rect x="5" y="5" width="90" height="140" rx="5" ry="5" fill="#f0f0f0" stroke="#000"/>

  <!-- Top circles -->
  <circle cx="20" cy="20" r="7" stroke="#000" fill="none"/>
  <line x1="16" y1="20" x2="24" y2="20" stroke="#000"/>
  <circle cx="40" cy="20" r="7" stroke="#000" fill="none"/>
  <line x1="36" y1="20" x2="44" y2="20" stroke="#000"/>

  <!-- Blue rectangle -->
  <rect x="10" y="30" width="80" height="20" fill="#add8e6"/>

  <!-- Black semi-circle -->
  <path d="M30,50 Q50,70 70,50 L70,30 Q50,50 30,30 Z" fill="#000"/>

  <!-- Red rectangle with text -->
  <rect x="35" y="55" width="30" height="15" fill="#ff0000"/>
  <text x="50" y="67" text-anchor="middle" fill="#fff" font-size="8">I> On</text>

  <!-- Module details text -->
  <text x="20" y="90" text-anchor="middle" fill="#000" font-size="12" font-weight="bold">20A</text>

  <!-- Bottom red line and text -->
  <path d="M20,120 L30,110 L30,120 Z" fill="#ff0000"/>
  <text x="40" y="118" fill="#000" font-size="8">legrand</text>

  <!-- Bottom circles -->
  <circle cx="20" cy="130" r="7" stroke="#000" fill="none"/>
  <text x="20" y="145" text-anchor="middle" fill="#000" font-size="10">N</text>
  <circle cx="40" cy="130" r="7" stroke="#000" fill="none"/>
  <text x="40" y="145" text-anchor="middle" fill="#000" font-size="10">N</text>
</svg>
